<mxfile host="app.diagrams.net" modified="2021-01-07T14:53:28.429Z" agent="5.0 (X11; Linux x86_64) AppleWebKit/537.36 (KHTML, like Gecko) Chrome/87.0.4280.88 Safari/537.36" etag="bkAcJZAZhXCSIItJ9Djx" version="14.1.8" type="github">
  <diagram id="Re2_eKQuALezutpp5Ufv" name="Page-1">
    <mxGraphModel dx="3431" dy="827" grid="1" gridSize="10" guides="1" tooltips="1" connect="1" arrows="1" fold="1" page="1" pageScale="1" pageWidth="1169" pageHeight="827" math="0" shadow="0">
      <root>
        <mxCell id="0" />
        <mxCell id="1" parent="0" />
        <mxCell id="wPXH4mjbis2pNeKBEpg1-1" value="" style="edgeStyle=orthogonalEdgeStyle;rounded=0;orthogonalLoop=1;jettySize=auto;html=1;endArrow=none;endFill=0;" edge="1" parent="1" source="wPXH4mjbis2pNeKBEpg1-2" target="wPXH4mjbis2pNeKBEpg1-3">
          <mxGeometry relative="1" as="geometry" />
        </mxCell>
        <mxCell id="wPXH4mjbis2pNeKBEpg1-2" value="Kafka" style="whiteSpace=wrap;html=1;aspect=fixed;" vertex="1" parent="1">
          <mxGeometry x="-1880" y="100" width="50" height="50" as="geometry" />
        </mxCell>
        <mxCell id="wPXH4mjbis2pNeKBEpg1-3" value="Kafka" style="whiteSpace=wrap;html=1;aspect=fixed;" vertex="1" parent="1">
          <mxGeometry x="-1880" y="710" width="50" height="50" as="geometry" />
        </mxCell>
        <mxCell id="wPXH4mjbis2pNeKBEpg1-4" value="" style="edgeStyle=orthogonalEdgeStyle;rounded=0;orthogonalLoop=1;jettySize=auto;html=1;endArrow=none;endFill=0;" edge="1" parent="1" source="wPXH4mjbis2pNeKBEpg1-5" target="wPXH4mjbis2pNeKBEpg1-6">
          <mxGeometry relative="1" as="geometry" />
        </mxCell>
        <mxCell id="wPXH4mjbis2pNeKBEpg1-5" value="filebeat" style="whiteSpace=wrap;html=1;aspect=fixed;" vertex="1" parent="1">
          <mxGeometry x="-1780" y="100" width="50" height="50" as="geometry" />
        </mxCell>
        <mxCell id="wPXH4mjbis2pNeKBEpg1-6" value="Exporter" style="whiteSpace=wrap;html=1;aspect=fixed;" vertex="1" parent="1">
          <mxGeometry x="-1780" y="710" width="50" height="50" as="geometry" />
        </mxCell>
        <mxCell id="wPXH4mjbis2pNeKBEpg1-7" value="" style="edgeStyle=orthogonalEdgeStyle;rounded=0;orthogonalLoop=1;jettySize=auto;html=1;endArrow=none;endFill=0;" edge="1" parent="1" source="wPXH4mjbis2pNeKBEpg1-8" target="wPXH4mjbis2pNeKBEpg1-9">
          <mxGeometry relative="1" as="geometry" />
        </mxCell>
        <mxCell id="wPXH4mjbis2pNeKBEpg1-8" value="Logstash" style="whiteSpace=wrap;html=1;aspect=fixed;" vertex="1" parent="1">
          <mxGeometry x="-1980" y="100" width="50" height="50" as="geometry" />
        </mxCell>
        <mxCell id="wPXH4mjbis2pNeKBEpg1-9" value="Logstash" style="whiteSpace=wrap;html=1;aspect=fixed;" vertex="1" parent="1">
          <mxGeometry x="-1980" y="710" width="50" height="50" as="geometry" />
        </mxCell>
        <mxCell id="wPXH4mjbis2pNeKBEpg1-10" value="" style="edgeStyle=orthogonalEdgeStyle;rounded=0;orthogonalLoop=1;jettySize=auto;html=1;endArrow=none;endFill=0;" edge="1" parent="1" source="wPXH4mjbis2pNeKBEpg1-11" target="wPXH4mjbis2pNeKBEpg1-12">
          <mxGeometry relative="1" as="geometry" />
        </mxCell>
        <mxCell id="wPXH4mjbis2pNeKBEpg1-11" value="Elastic" style="whiteSpace=wrap;html=1;aspect=fixed;" vertex="1" parent="1">
          <mxGeometry x="-2080" y="100" width="50" height="50" as="geometry" />
        </mxCell>
        <mxCell id="wPXH4mjbis2pNeKBEpg1-12" value="Elastic" style="whiteSpace=wrap;html=1;aspect=fixed;" vertex="1" parent="1">
          <mxGeometry x="-2080" y="710" width="50" height="50" as="geometry" />
        </mxCell>
        <mxCell id="wPXH4mjbis2pNeKBEpg1-13" value="" style="edgeStyle=orthogonalEdgeStyle;rounded=0;orthogonalLoop=1;jettySize=auto;html=1;endArrow=none;endFill=0;" edge="1" parent="1" source="wPXH4mjbis2pNeKBEpg1-14" target="wPXH4mjbis2pNeKBEpg1-15">
          <mxGeometry relative="1" as="geometry" />
        </mxCell>
        <mxCell id="wPXH4mjbis2pNeKBEpg1-14" value="Kibana" style="whiteSpace=wrap;html=1;aspect=fixed;" vertex="1" parent="1">
          <mxGeometry x="-2180" y="100" width="50" height="50" as="geometry" />
        </mxCell>
        <mxCell id="wPXH4mjbis2pNeKBEpg1-15" value="Kibana" style="whiteSpace=wrap;html=1;aspect=fixed;" vertex="1" parent="1">
          <mxGeometry x="-2180" y="710" width="50" height="50" as="geometry" />
        </mxCell>
        <mxCell id="wPXH4mjbis2pNeKBEpg1-16" value="" style="edgeStyle=orthogonalEdgeStyle;rounded=0;orthogonalLoop=1;jettySize=auto;html=1;endArrow=none;endFill=0;" edge="1" parent="1" source="wPXH4mjbis2pNeKBEpg1-17" target="wPXH4mjbis2pNeKBEpg1-18">
          <mxGeometry relative="1" as="geometry" />
        </mxCell>
        <mxCell id="wPXH4mjbis2pNeKBEpg1-17" value="Conf&lt;br&gt;Manager" style="whiteSpace=wrap;html=1;aspect=fixed;" vertex="1" parent="1">
          <mxGeometry x="-2280" y="100" width="50" height="50" as="geometry" />
        </mxCell>
        <mxCell id="wPXH4mjbis2pNeKBEpg1-18" value="Conf&lt;br&gt;Manager" style="whiteSpace=wrap;html=1;aspect=fixed;" vertex="1" parent="1">
          <mxGeometry x="-2280" y="710" width="50" height="50" as="geometry" />
        </mxCell>
        <mxCell id="wPXH4mjbis2pNeKBEpg1-19" value="" style="endArrow=classic;html=1;strokeColor=#000000;" edge="1" parent="1">
          <mxGeometry width="50" height="50" relative="1" as="geometry">
            <mxPoint x="-2250" y="234" as="sourcePoint" />
            <mxPoint x="-1955.5" y="234" as="targetPoint" />
          </mxGeometry>
        </mxCell>
        <mxCell id="wPXH4mjbis2pNeKBEpg1-20" value="Configure pipeline" style="text;html=1;align=center;verticalAlign=middle;resizable=0;points=[];labelBackgroundColor=#ffffff;" vertex="1" connectable="0" parent="wPXH4mjbis2pNeKBEpg1-19">
          <mxGeometry x="0.2341" y="1" relative="1" as="geometry">
            <mxPoint as="offset" />
          </mxGeometry>
        </mxCell>
        <mxCell id="wPXH4mjbis2pNeKBEpg1-21" value="" style="endArrow=classic;html=1;strokeColor=#B0B0B0;fontColor=#B0B0B0;" edge="1" parent="1">
          <mxGeometry width="50" height="50" relative="1" as="geometry">
            <mxPoint x="-2250" y="184" as="sourcePoint" />
            <mxPoint x="-1850" y="184" as="targetPoint" />
          </mxGeometry>
        </mxCell>
        <mxCell id="wPXH4mjbis2pNeKBEpg1-22" value="Create topic" style="text;html=1;align=center;verticalAlign=middle;resizable=0;points=[];labelBackgroundColor=#ffffff;fontColor=#B0B0B0;" vertex="1" connectable="0" parent="wPXH4mjbis2pNeKBEpg1-21">
          <mxGeometry x="0.1943" y="1" relative="1" as="geometry">
            <mxPoint as="offset" />
          </mxGeometry>
        </mxCell>
        <mxCell id="wPXH4mjbis2pNeKBEpg1-23" value="" style="endArrow=classic;html=1;strokeColor=#B0B0B0;" edge="1" parent="1">
          <mxGeometry width="50" height="50" relative="1" as="geometry">
            <mxPoint x="-2250" y="290" as="sourcePoint" />
            <mxPoint x="-1760" y="290" as="targetPoint" />
          </mxGeometry>
        </mxCell>
        <mxCell id="wPXH4mjbis2pNeKBEpg1-24" value="Configure exporter" style="text;html=1;align=center;verticalAlign=middle;resizable=0;points=[];labelBackgroundColor=#ffffff;fontColor=#B0B0B0;" vertex="1" connectable="0" parent="wPXH4mjbis2pNeKBEpg1-23">
          <mxGeometry x="0.0682" y="1" relative="1" as="geometry">
            <mxPoint as="offset" />
          </mxGeometry>
        </mxCell>
        <mxCell id="wPXH4mjbis2pNeKBEpg1-25" value="" style="edgeStyle=orthogonalEdgeStyle;rounded=0;orthogonalLoop=1;jettySize=auto;html=1;endArrow=none;endFill=0;" edge="1" parent="1" source="wPXH4mjbis2pNeKBEpg1-26" target="wPXH4mjbis2pNeKBEpg1-27">
          <mxGeometry relative="1" as="geometry" />
        </mxCell>
        <mxCell id="wPXH4mjbis2pNeKBEpg1-26" value="Resource" style="whiteSpace=wrap;html=1;aspect=fixed;" vertex="1" parent="1">
          <mxGeometry x="-1680" y="100" width="50" height="50" as="geometry" />
        </mxCell>
        <mxCell id="wPXH4mjbis2pNeKBEpg1-27" value="Resource" style="whiteSpace=wrap;html=1;aspect=fixed;" vertex="1" parent="1">
          <mxGeometry x="-1680" y="710" width="50" height="50" as="geometry" />
        </mxCell>
        <mxCell id="wPXH4mjbis2pNeKBEpg1-28" value="" style="endArrow=none;html=1;strokeColor=#000000;endFill=0;startFill=1;startArrow=classic;" edge="1" parent="1">
          <mxGeometry width="50" height="50" relative="1" as="geometry">
            <mxPoint x="-1750" y="350" as="sourcePoint" />
            <mxPoint x="-1655" y="350" as="targetPoint" />
          </mxGeometry>
        </mxCell>
        <mxCell id="wPXH4mjbis2pNeKBEpg1-29" value="Get mon data" style="text;html=1;align=center;verticalAlign=middle;resizable=0;points=[];labelBackgroundColor=#ffffff;" vertex="1" connectable="0" parent="wPXH4mjbis2pNeKBEpg1-28">
          <mxGeometry x="0.1943" y="1" relative="1" as="geometry">
            <mxPoint x="-12.86" as="offset" />
          </mxGeometry>
        </mxCell>
        <mxCell id="wPXH4mjbis2pNeKBEpg1-30" value="" style="endArrow=none;html=1;strokeColor=#000000;endFill=0;startArrow=classic;startFill=1;" edge="1" parent="1">
          <mxGeometry width="50" height="50" relative="1" as="geometry">
            <mxPoint x="-1860" y="400" as="sourcePoint" />
            <mxPoint x="-1755" y="400" as="targetPoint" />
          </mxGeometry>
        </mxCell>
        <mxCell id="wPXH4mjbis2pNeKBEpg1-31" value="Push event" style="text;html=1;align=center;verticalAlign=middle;resizable=0;points=[];labelBackgroundColor=#ffffff;" vertex="1" connectable="0" parent="wPXH4mjbis2pNeKBEpg1-30">
          <mxGeometry x="0.1943" y="1" relative="1" as="geometry">
            <mxPoint x="-2.8599999999999994" as="offset" />
          </mxGeometry>
        </mxCell>
        <mxCell id="wPXH4mjbis2pNeKBEpg1-32" value="" style="endArrow=none;html=1;strokeColor=#000000;endFill=0;startArrow=classic;startFill=1;" edge="1" parent="1">
          <mxGeometry width="50" height="50" relative="1" as="geometry">
            <mxPoint x="-1960" y="430" as="sourcePoint" />
            <mxPoint x="-1855" y="430" as="targetPoint" />
          </mxGeometry>
        </mxCell>
        <mxCell id="wPXH4mjbis2pNeKBEpg1-33" value="Get mon data" style="text;html=1;align=center;verticalAlign=middle;resizable=0;points=[];labelBackgroundColor=#ffffff;" vertex="1" connectable="0" parent="wPXH4mjbis2pNeKBEpg1-32">
          <mxGeometry x="0.1943" y="1" relative="1" as="geometry">
            <mxPoint x="-12.86" as="offset" />
          </mxGeometry>
        </mxCell>
        <mxCell id="wPXH4mjbis2pNeKBEpg1-34" value="" style="endArrow=none;html=1;strokeColor=#000000;endFill=0;startArrow=classic;startFill=1;" edge="1" parent="1">
          <mxGeometry width="50" height="50" relative="1" as="geometry">
            <mxPoint x="-2060" y="480" as="sourcePoint" />
            <mxPoint x="-1955" y="480" as="targetPoint" />
          </mxGeometry>
        </mxCell>
        <mxCell id="wPXH4mjbis2pNeKBEpg1-35" value="Parse mon data" style="text;html=1;align=center;verticalAlign=middle;resizable=0;points=[];labelBackgroundColor=#ffffff;" vertex="1" connectable="0" parent="wPXH4mjbis2pNeKBEpg1-34">
          <mxGeometry x="0.1943" y="1" relative="1" as="geometry">
            <mxPoint x="-2.8599999999999994" as="offset" />
          </mxGeometry>
        </mxCell>
        <mxCell id="wPXH4mjbis2pNeKBEpg1-36" value="" style="endArrow=none;html=1;strokeColor=#000000;endFill=0;startFill=1;startArrow=classic;" edge="1" parent="1">
          <mxGeometry width="50" height="50" relative="1" as="geometry">
            <mxPoint x="-2150" y="590" as="sourcePoint" />
            <mxPoint x="-2055" y="590" as="targetPoint" />
          </mxGeometry>
        </mxCell>
        <mxCell id="wPXH4mjbis2pNeKBEpg1-37" value="Get mon data" style="text;html=1;align=center;verticalAlign=middle;resizable=0;points=[];labelBackgroundColor=#ffffff;" vertex="1" connectable="0" parent="wPXH4mjbis2pNeKBEpg1-36">
          <mxGeometry x="0.1943" y="1" relative="1" as="geometry">
            <mxPoint x="-12.86" as="offset" />
          </mxGeometry>
        </mxCell>
        <mxCell id="wPXH4mjbis2pNeKBEpg1-38" value="" style="endArrow=classic;html=1;strokeColor=#000000;" edge="1" parent="1">
          <mxGeometry width="50" height="50" relative="1" as="geometry">
            <mxPoint x="-2260" y="530" as="sourcePoint" />
            <mxPoint x="-2155" y="530" as="targetPoint" />
          </mxGeometry>
        </mxCell>
        <mxCell id="wPXH4mjbis2pNeKBEpg1-39" value="Configure&lt;br&gt;dashboards" style="text;html=1;align=center;verticalAlign=middle;resizable=0;points=[];labelBackgroundColor=#ffffff;" vertex="1" connectable="0" parent="wPXH4mjbis2pNeKBEpg1-38">
          <mxGeometry x="0.1943" y="1" relative="1" as="geometry">
            <mxPoint x="-12.86" as="offset" />
          </mxGeometry>
        </mxCell>
      </root>
    </mxGraphModel>
  </diagram>
</mxfile>
